<svg width="24" height="24" viewBox="0 0 24 24" fill="none" xmlns="http://www.w3.org/2000/svg">
<path fill-rule="evenodd" clip-rule="evenodd" d="M2 5.33325C0.89543 5.33325 0 6.22868 0 7.33325V20.6666C0 21.7712 0.895429 22.6666 2 22.6666H18.6667C19.7712 22.6666 20.6667 21.7712 20.6667 20.6666V7.33325C20.6667 6.22868 19.7712 5.33325 18.6667 5.33325H2ZM3.66667 9.33325C3.9963 9.33325 4.31853 9.42821 4.59262 9.60611C4.8667 9.78401 5.08032 10.0369 5.20647 10.3327C5.33261 10.6286 5.36562 10.9541 5.30131 11.2682C5.237 11.5822 5.07827 11.8707 4.84518 12.0971C4.61209 12.3236 4.31512 12.4778 3.99182 12.5402C3.66852 12.6027 3.3334 12.5706 3.02886 12.4481C2.72432 12.3256 2.46402 12.118 2.28088 11.8518C2.09775 11.5855 2 11.2725 2 10.9523C2 10.5229 2.17559 10.1111 2.48816 9.80746C2.80072 9.50383 3.22464 9.33325 3.66667 9.33325ZM18.6667 20.6666H2V19.0475L5.33333 15.8094L7 17.4285L13.6667 10.9523L18.6667 15.8094V20.6666Z" fill="#D33218"/>
<path fill-rule="evenodd" clip-rule="evenodd" d="M5.3335 2C4.22893 2 3.3335 2.89543 3.3335 4V4.0569C3.43776 4.02005 3.54995 4 3.66683 4H21.0002C21.5524 4 22.0002 4.44772 22.0002 5V19.6667C22.0002 19.7835 21.9801 19.8957 21.9433 20H22.0002C23.1047 20 24.0002 19.1046 24.0002 18V4C24.0002 2.89543 23.1047 2 22.0002 2H5.3335Z" fill="#D33218"/>
</svg>
