<svg width="24" height="21" viewBox="0 0 24 21" fill="none" xmlns="http://www.w3.org/2000/svg">
<path fill-rule="evenodd" clip-rule="evenodd" d="M2 0C0.895431 0 0 0.895428 0 2V18.6667C0 19.7712 0.89543 20.6667 2 20.6667H22C23.1046 20.6667 24 19.7712 24 18.6667V2C24 0.895431 23.1046 0 22 0H2ZM7.66667 2C7.11438 2 6.66667 2.44771 6.66667 3V17.6667C6.66667 18.2189 7.11438 18.6667 7.66667 18.6667H16.3333C16.8856 18.6667 17.3333 18.219 17.3333 17.6667V3C17.3333 2.44772 16.8856 2 16.3333 2H7.66667ZM19.3333 6.66667H22V9.33333H19.3333V6.66667ZM22 2H19.3333V4.66667H22V2ZM2 6.66667H4.66667V9.33333H2V6.66667ZM4.66667 2H2V4.66667H4.66667V2ZM19.3333 11.3333H22V14H19.3333V11.3333ZM4.66667 11.3333H2V14H4.66667V11.3333ZM19.3333 16H22V18.6667H19.3333V16ZM4.66667 16H2V18.6667H4.66667V16Z" fill="#D33218"/>
</svg>
