<svg width="48" height="24" viewBox="0 0 48 24" fill="none" xmlns="http://www.w3.org/2000/svg">
<path d="M10.0013 2.33325C10.0013 2.06804 9.89591 1.81368 9.70837 1.62615C9.52083 1.43861 9.26648 1.33325 9.00126 1.33325C8.73605 1.33325 8.48169 1.43861 8.29416 1.62615C8.10662 1.81368 8.00126 2.06804 8.00126 2.33325V19.2526L5.70926 16.9586C5.61629 16.8656 5.50591 16.7919 5.38443 16.7415C5.26295 16.6912 5.13275 16.6653 5.00126 16.6653C4.86978 16.6653 4.73958 16.6912 4.6181 16.7415C4.49662 16.7919 4.38624 16.8656 4.29326 16.9586C4.20029 17.0516 4.12653 17.1619 4.07622 17.2834C4.0259 17.4049 4 17.5351 4 17.6666C4 17.7981 4.0259 17.9283 4.07622 18.0498C4.12653 18.1712 4.20029 18.2816 4.29326 18.3746L8.29326 22.3726L8.30726 22.3866C8.49502 22.5697 8.74751 22.6711 9.00974 22.6689C9.27196 22.6666 9.52268 22.5609 9.70726 22.3746L13.7073 18.3746C13.895 18.1871 14.0006 17.9327 14.0008 17.6673C14.001 17.4019 13.8958 17.1474 13.7083 16.9596C13.5208 16.7718 13.2663 16.6662 13.001 16.666C12.7356 16.6658 12.481 16.7711 12.2933 16.9586L10.0013 19.2526V2.33325Z" fill="#514E4E"/>
<path fill-rule="evenodd" clip-rule="evenodd" d="M25.1965 15.8463L24.1724 12.9387H20.1692L19.1451 15.8463H17.3333L21.2291 5.33325H23.134L27.0227 15.8463H25.1965ZM23.7284 11.4635L22.733 8.59888C22.6948 8.47474 22.6399 8.30048 22.5683 8.07609C22.4967 7.84692 22.425 7.61537 22.3534 7.38143C22.2818 7.14271 22.2221 6.94219 22.1744 6.77987C22.1267 6.97561 22.067 7.19523 21.9954 7.43872C21.9285 7.67744 21.8617 7.90183 21.7948 8.1119C21.7328 8.32197 21.685 8.48429 21.6516 8.59888L20.649 11.4635H23.7284Z" fill="#514E4E"/>
<path d="M27.9999 9.9231H33.3333V11.2564H27.9999V9.9231Z" fill="#514E4E"/>
<path fill-rule="evenodd" clip-rule="evenodd" d="M36.6145 15.8248L39.1998 11.6282H40.9615V15.8248H42.6803V5.35474H39.5364C38.2664 5.35474 37.2948 5.60777 36.6217 6.11385C35.9533 6.61993 35.6191 7.35517 35.6191 8.31958C35.6191 8.90682 35.7145 9.39619 35.9055 9.78768C36.1013 10.1744 36.3519 10.48 36.6575 10.7043C36.9678 10.9287 37.2901 11.1006 37.6243 11.22L34.6666 15.8248H36.6145ZM39.608 6.77987H40.9615V10.203H39.6295C38.8656 10.203 38.2974 10.0479 37.925 9.73755C37.5527 9.42722 37.3665 8.99037 37.3665 8.427C37.3665 8.03551 37.4524 7.7204 37.6243 7.48169C37.7961 7.2382 38.0492 7.06155 38.3834 6.95174C38.7176 6.83716 39.1258 6.77987 39.608 6.77987Z" fill="#514E4E"/>
</svg>
