<svg width="7" height="12" viewBox="0 0 7 12" fill="none" xmlns="http://www.w3.org/2000/svg">
<path d="M6.74767 9.40234C7.11443 9.81527 7.077 10.4473 6.66407 10.8141C6.25114 11.1808 5.61908 11.1434 5.25233 10.7305L6.74767 9.40234ZM2 5.56281L1.25233 6.22687L0.662045 5.56228L1.25285 4.89815L2 5.56281ZM5.25286 0.401746C5.61994 -0.0108914 6.25202 -0.0478211 6.66466 0.319261C7.0773 0.686343 7.11423 1.31843 6.74715 1.73107L5.25286 0.401746ZM5.25233 10.7305L1.25233 6.22687L2.74767 4.89874L6.74767 9.40234L5.25233 10.7305ZM1.25285 4.89815L5.25286 0.401746L6.74715 1.73107L2.74715 6.22747L1.25285 4.89815Z" fill="#514E4E"/>
</svg>
