<svg width="24" height="24" viewBox="0 0 24 24" fill="none" xmlns="http://www.w3.org/2000/svg">
<path d="M8.38801 3.696L21.612 1.296C22.272 1.2 22.8 1.836 22.8 2.496V17.4C22.8 19.728 20.916 21.6 18.6 21.6C16.284 21.6 14.4 19.728 14.4 17.4C14.4 15.084 16.284 13.2 18.6 13.2C19.248 13.2 19.848 13.368 20.4 13.62V6.096L9.60001 8.496V19.2C9.31201 21.24 7.51201 22.8 5.40001 22.8C3.08401 22.8 1.20001 20.928 1.20001 18.6C1.20001 16.284 3.08401 14.4 5.40001 14.4C6.04801 14.4 6.64801 14.568 7.20001 14.82V4.896C7.20001 4.236 7.72801 3.804 8.38801 3.696Z" fill="#DC4128"/>
</svg>
