<svg width="25" height="20" viewBox="0 0 25 20" fill="none" xmlns="http://www.w3.org/2000/svg">
<g clip-path="url(#clip0_636_641)">
<path d="M23.75 0H6.25C5.91848 0 5.60054 0.131696 5.36612 0.366117C5.1317 0.600537 5 0.918479 5 1.25V5H11.25V2.5H18.75V15H23.75C24.0815 15 24.3995 14.8683 24.6339 14.6339C24.8683 14.3995 25 14.0815 25 13.75V1.25C25 0.918479 24.8683 0.600537 24.6339 0.366117C24.3995 0.131696 24.0815 0 23.75 0V0ZM9.0625 4.02344C9.0625 4.11668 9.02546 4.2061 8.95953 4.27203C8.8936 4.33796 8.80418 4.375 8.71094 4.375H7.53906C7.44582 4.375 7.3564 4.33796 7.29047 4.27203C7.22454 4.2061 7.1875 4.11668 7.1875 4.02344V2.85156C7.1875 2.75832 7.22454 2.6689 7.29047 2.60297C7.3564 2.53704 7.44582 2.5 7.53906 2.5H8.71094C8.80418 2.5 8.8936 2.53704 8.95953 2.60297C9.02546 2.6689 9.0625 2.75832 9.0625 2.85156V4.02344ZM22.8125 12.1484C22.8125 12.2417 22.7755 12.3311 22.7095 12.397C22.6436 12.463 22.5542 12.5 22.4609 12.5H21.2891C21.1958 12.5 21.1064 12.463 21.0405 12.397C20.9745 12.3311 20.9375 12.2417 20.9375 12.1484V10.9766C20.9375 10.8833 20.9745 10.7939 21.0405 10.728C21.1064 10.662 21.1958 10.625 21.2891 10.625H22.4609C22.5542 10.625 22.6436 10.662 22.7095 10.728C22.7755 10.7939 22.8125 10.8833 22.8125 10.9766V12.1484ZM22.8125 8.08594C22.8125 8.17918 22.7755 8.2686 22.7095 8.33453C22.6436 8.40046 22.5542 8.4375 22.4609 8.4375H21.2891C21.1958 8.4375 21.1064 8.40046 21.0405 8.33453C20.9745 8.2686 20.9375 8.17918 20.9375 8.08594V6.91406C20.9375 6.82082 20.9745 6.7314 21.0405 6.66547C21.1064 6.59954 21.1958 6.5625 21.2891 6.5625H22.4609C22.5542 6.5625 22.6436 6.59954 22.7095 6.66547C22.7755 6.7314 22.8125 6.82082 22.8125 6.91406V8.08594ZM22.8125 4.02344C22.8125 4.11668 22.7755 4.2061 22.7095 4.27203C22.6436 4.33796 22.5542 4.375 22.4609 4.375H21.2891C21.1958 4.375 21.1064 4.33796 21.0405 4.27203C20.9745 4.2061 20.9375 4.11668 20.9375 4.02344V2.85156C20.9375 2.75832 20.9745 2.6689 21.0405 2.60297C21.1064 2.53704 21.1958 2.5 21.2891 2.5H22.4609C22.5542 2.5 22.6436 2.53704 22.7095 2.60297C22.7755 2.6689 22.8125 2.75832 22.8125 2.85156V4.02344ZM16.25 6.25H1.25C0.918479 6.25 0.600537 6.3817 0.366117 6.61612C0.131696 6.85054 0 7.16848 0 7.5L0 18.75C0 19.0815 0.131696 19.3995 0.366117 19.6339C0.600537 19.8683 0.918479 20 1.25 20H16.25C16.5815 20 16.8995 19.8683 17.1339 19.6339C17.3683 19.3995 17.5 19.0815 17.5 18.75V7.5C17.5 7.16848 17.3683 6.85054 17.1339 6.61612C16.8995 6.3817 16.5815 6.25 16.25 6.25ZM3.75 8.75C3.99723 8.75 4.2389 8.82331 4.44446 8.96066C4.65002 9.09801 4.81024 9.29324 4.90485 9.52165C4.99946 9.75005 5.02421 10.0014 4.97598 10.2439C4.92775 10.4863 4.8087 10.7091 4.63388 10.8839C4.45907 11.0587 4.23634 11.1778 3.99386 11.226C3.75139 11.2742 3.50005 11.2495 3.27165 11.1549C3.04324 11.0602 2.84801 10.9 2.71066 10.6945C2.57331 10.4889 2.5 10.2472 2.5 10C2.5 9.66848 2.6317 9.35054 2.86612 9.11612C3.10054 8.8817 3.41848 8.75 3.75 8.75ZM15 17.5H2.5V16.25L5 13.75L6.25 15L11.25 10L15 13.75V17.5Z" fill="white"/>
</g>
<defs>
<clipPath id="clip0_636_641">
<rect width="25" height="20" fill="white"/>
</clipPath>
</defs>
</svg>
