<svg width="24" height="24" viewBox="0 0 24 24" fill="none" xmlns="http://www.w3.org/2000/svg">
<path d="M14.4347 11.625L10.125 7.24316V11.3438C10.125 11.4184 10.1546 11.4899 10.2074 11.5427C10.2601 11.5954 10.3317 11.625 10.4062 11.625H14.4347Z" fill="#D33218"/>
<path d="M8.625 12.5625V6.75004H2.8125C2.66332 6.75004 2.52024 6.8093 2.41475 6.91479C2.30926 7.02028 2.25 7.16336 2.25 7.31254V22.6875C2.25 22.8367 2.30926 22.9798 2.41475 23.0853C2.52024 23.1908 2.66332 23.25 2.8125 23.25H14.4375C14.5867 23.25 14.7298 23.1908 14.8352 23.0853C14.9407 22.9798 15 22.8367 15 22.6875V13.125H9.1875C9.03832 13.125 8.89524 13.0658 8.78975 12.9603C8.68426 12.8548 8.625 12.7117 8.625 12.5625ZM17.1563 5.62504H21.1847L16.875 1.24316V5.34379C16.875 5.41838 16.9046 5.48992 16.9574 5.54266C17.0101 5.59541 17.0817 5.62504 17.1563 5.62504Z" fill="#D33218"/>
<path d="M15.9375 7.125C15.7883 7.125 15.6452 7.06574 15.5398 6.96025C15.4343 6.85476 15.375 6.71168 15.375 6.5625V0.75H8.0625C7.91332 0.75 7.77024 0.809263 7.66475 0.914752C7.55926 1.02024 7.5 1.16332 7.5 1.3125V5.25H9.47437C9.72638 5.25101 9.97571 5.3018 10.208 5.39946C10.4403 5.49712 10.6511 5.63971 10.8281 5.81906L15.945 11.0222C16.302 11.3844 16.5013 11.873 16.4995 12.3816V18.75H21.1875C21.3367 18.75 21.4798 18.6907 21.5852 18.5852C21.6907 18.4798 21.75 18.3367 21.75 18.1875V7.125H15.9375Z" fill="#D33218"/>
</svg>
