<svg width="22" height="22" viewBox="0 0 22 22" fill="none" xmlns="http://www.w3.org/2000/svg">
<path d="M7.3882 2.69603L20.6122 0.296029C21.2722 0.200029 21.8002 0.836029 21.8002 1.49603V16.4C21.8002 18.728 19.9162 20.6 17.6002 20.6C15.2842 20.6 13.4002 18.728 13.4002 16.4C13.4002 14.084 15.2842 12.2 17.6002 12.2C18.2482 12.2 18.8482 12.368 19.4002 12.62V5.09603L8.6002 7.49603V18.2C8.3122 20.24 6.5122 21.8 4.4002 21.8C2.0842 21.8 0.200195 19.928 0.200195 17.6C0.200195 15.284 2.0842 13.4 4.4002 13.4C5.0482 13.4 5.6482 13.568 6.2002 13.82V3.89603C6.2002 3.23603 6.7282 2.80403 7.3882 2.69603Z" fill="#D33218"/>
</svg>
