<svg width="24" height="24" viewBox="0 0 24 24" fill="none" xmlns="http://www.w3.org/2000/svg">
<path fill-rule="evenodd" clip-rule="evenodd" d="M2 5.33334C0.89543 5.33334 0 6.22877 0 7.33334V20.6667C0 21.7712 0.895429 22.6667 2 22.6667H18.6667C19.7712 22.6667 20.6667 21.7712 20.6667 20.6667V7.33334C20.6667 6.22877 19.7712 5.33334 18.6667 5.33334H2ZM3.66667 9.33334C3.9963 9.33334 4.31853 9.42829 4.59262 9.60619C4.8667 9.7841 5.08032 10.037 5.20647 10.3328C5.33261 10.6286 5.36562 10.9542 5.30131 11.2682C5.237 11.5823 5.07827 11.8708 4.84518 12.0972C4.61209 12.3237 4.31512 12.4779 3.99182 12.5403C3.66852 12.6028 3.3334 12.5707 3.02886 12.4482C2.72432 12.3256 2.46402 12.1181 2.28088 11.8519C2.09775 11.5856 2 11.2726 2 10.9524C2 10.523 2.17559 10.1112 2.48816 9.80754C2.80072 9.50391 3.22464 9.33334 3.66667 9.33334ZM18.6667 20.6667H2V19.0476L5.33333 15.8095L7 17.4286L13.6667 10.9524L18.6667 15.8095V20.6667Z" fill="#DC4128"/>
<path fill-rule="evenodd" clip-rule="evenodd" d="M5.33331 2C4.22874 2 3.33331 2.89543 3.33331 4V4.0569C3.43757 4.02005 3.54977 4 3.66665 4H21C21.5523 4 22 4.44772 22 5V19.6667C22 19.7835 21.9799 19.8957 21.9431 20H22C23.1045 20 24 19.1046 24 18V4C24 2.89543 23.1046 2 22 2H5.33331Z" fill="#DC4128"/>
</svg>
