<svg width="24" height="24" viewBox="0 0 24 24" fill="none" xmlns="http://www.w3.org/2000/svg">
<path fill-rule="evenodd" clip-rule="evenodd" d="M2 2C0.895431 2 0 2.89543 0 4V20.6667C0 21.7712 0.89543 22.6667 2 22.6667H22C23.1046 22.6667 24 21.7712 24 20.6667V4C24 2.89543 23.1046 2 22 2H2ZM7.66667 4C7.11438 4 6.66667 4.44771 6.66667 5V19.6667C6.66667 20.2189 7.11438 20.6667 7.66667 20.6667H16.3333C16.8856 20.6667 17.3333 20.219 17.3333 19.6667V5C17.3333 4.44772 16.8856 4 16.3333 4H7.66667ZM19.3333 8.66667H22V11.3333H19.3333V8.66667ZM22 4H19.3333V6.66667H22V4ZM2 8.66667H4.66667V11.3333H2V8.66667ZM4.66667 4H2V6.66667H4.66667V4ZM19.3333 13.3333H22V16H19.3333V13.3333ZM4.66667 13.3333H2V16H4.66667V13.3333ZM19.3333 18H22V20.6667H19.3333V18ZM4.66667 18H2V20.6667H4.66667V18Z" fill="#DC4128"/>
</svg>
