<svg width="48" height="24" viewBox="0 0 48 24" fill="none" xmlns="http://www.w3.org/2000/svg">
<path d="M10.0013 2.33325C10.0013 2.06804 9.89591 1.81368 9.70837 1.62615C9.52083 1.43861 9.26648 1.33325 9.00126 1.33325C8.73605 1.33325 8.48169 1.43861 8.29416 1.62615C8.10662 1.81368 8.00126 2.06804 8.00126 2.33325V19.2526L5.70926 16.9586C5.61629 16.8656 5.50591 16.7919 5.38443 16.7415C5.26295 16.6912 5.13275 16.6653 5.00126 16.6653C4.86978 16.6653 4.73958 16.6912 4.6181 16.7415C4.49662 16.7919 4.38624 16.8656 4.29326 16.9586C4.20029 17.0516 4.12653 17.1619 4.07622 17.2834C4.0259 17.4049 4 17.5351 4 17.6666C4 17.7981 4.0259 17.9283 4.07622 18.0498C4.12653 18.1712 4.20029 18.2816 4.29326 18.3746L8.29326 22.3726L8.30726 22.3866C8.49502 22.5697 8.74751 22.6711 9.00974 22.6689C9.27196 22.6666 9.52268 22.5609 9.70726 22.3746L13.7073 18.3746C13.895 18.1871 14.0006 17.9327 14.0008 17.6673C14.001 17.4019 13.8958 17.1474 13.7083 16.9596C13.5208 16.7718 13.2663 16.6662 13.001 16.666C12.7356 16.6658 12.481 16.7711 12.2933 16.9586L10.0013 19.2526V2.33325Z" fill="#514E4E"/>
<path fill-rule="evenodd" clip-rule="evenodd" d="M40.8392 12.6055L41.8633 15.513H43.6895L39.8008 5H37.8958L34 15.513H35.8118L36.8359 12.6055H40.8392ZM39.3997 8.26562L40.3952 11.1302H37.3158L38.3184 8.26562C38.3518 8.15104 38.3995 7.98871 38.4616 7.77865C38.5284 7.56858 38.5953 7.34418 38.6621 7.10547C38.7337 6.86198 38.7934 6.64236 38.8411 6.44661C38.8889 6.60894 38.9486 6.80946 39.0202 7.04818C39.0918 7.28212 39.1634 7.51367 39.235 7.74284C39.3066 7.96723 39.3615 8.14149 39.3997 8.26562Z" fill="#514E4E"/>
<path fill-rule="evenodd" clip-rule="evenodd" d="M22.5332 11.6282L19.9479 15.8248H18L20.9577 11.22C20.6235 11.1006 20.3012 10.9287 19.9909 10.7043C19.6853 10.48 19.4347 10.1744 19.2389 9.78768C19.048 9.39619 18.9525 8.90682 18.9525 8.31958C18.9525 7.35517 19.2867 6.61993 19.9551 6.11385C20.6283 5.60777 21.5998 5.35474 22.8698 5.35474H26.0137V15.8248H24.2949V11.6282H22.5332ZM24.2949 6.77987H22.9414C22.4592 6.77987 22.051 6.83716 21.7168 6.95174C21.3826 7.06155 21.1296 7.2382 20.9577 7.48169C20.7858 7.7204 20.6999 8.03551 20.6999 8.427C20.6999 8.99037 20.8861 9.42722 21.2585 9.73755C21.6309 10.0479 22.199 10.203 22.9629 10.203H24.2949V6.77987Z" fill="#514E4E"/>
<path d="M28 9.58984H33.3333V10.9232H28V9.58984Z" fill="#514E4E"/>
</svg>
