<svg width="7" height="12" viewBox="0 0 7 12" fill="none" xmlns="http://www.w3.org/2000/svg">
<path d="M0.252327 9.40234C-0.114427 9.81527 -0.0769955 10.4473 0.335933 10.8141C0.748861 11.1808 1.38092 11.1434 1.74767 10.7305L0.252327 9.40234ZM5 5.56281L5.74767 6.22687L6.33795 5.56228L5.74715 4.89815L5 5.56281ZM1.74714 0.401746C1.38006 -0.010891 0.747976 -0.047821 0.335339 0.319261C-0.0772981 0.686343 -0.114228 1.31843 0.252854 1.73107L1.74714 0.401746ZM1.74767 10.7305L5.74767 6.22687L4.25233 4.89874L0.252327 9.40234L1.74767 10.7305ZM5.74715 4.89815L1.74714 0.401746L0.252854 1.73107L4.25285 6.22747L5.74715 4.89815Z" fill="#514E4E"/>
</svg>
