<svg width="70" height="35" viewBox="0 0 70 35" fill="none" xmlns="http://www.w3.org/2000/svg">
<path d="M0.494141 0.0712891H2.98145V4.51855L6.48828 0.0712891H9.4502L4.93262 5.83691L9.88965 13H6.97168L2.98145 7.26074V13H0.494141V0.0712891ZM11.6299 0.0712891H14.126V4.94922H18.4502V0.0712891H20.9375V13H18.4502V7.33105H14.126V13H11.6299V0.0712891ZM33.3125 0.0712891V13H30.8516V4.90527L26.0264 13H23.8818V0.0712891H26.3428V8.42969L31.2383 0.0712891H33.3125ZM36.2568 0.0712891H42.6729V2.47949H38.6914V13H36.2568V0.0712891ZM48.5352 0.0712891H51.0312L56.0059 13H53.4482L52.4375 10.3369H47.1641L46.1094 13H43.5518L48.5352 0.0712891ZM49.8008 3.49902L48.0781 7.9375H51.5146L49.8008 3.49902ZM0.467773 22.0713H9.77539V35H7.28809V24.374H2.96387V35H0.467773V22.0713ZM16.666 22.0713H19.1621L24.1367 35H21.5791L20.5684 32.3369H15.2949L14.2402 35H11.6826L16.666 22.0713ZM17.9316 25.499L16.209 29.9375H19.6455L17.9316 25.499ZM27.3008 22.0713H29.709L32.6973 31.0889L35.7295 22.0713H38.1025L40.2822 35H37.9092L36.5205 26.835L33.7695 35H31.5986L28.8828 26.835L27.4678 35H25.0684L27.3008 22.0713ZM49.8799 22.0713V35H47.4189V29.7969H46.8037L44.2021 35H41.5127L44.4395 29.3926C42.7402 28.9062 41.8906 27.7754 41.8906 26C41.8906 25.3672 41.9785 24.8164 42.1543 24.3477C42.3359 23.8789 42.5908 23.4834 42.9189 23.1611C43.2529 22.833 43.6367 22.5928 44.0703 22.4404C44.5098 22.2822 44.8584 22.1914 45.1162 22.168C45.374 22.1445 46.0918 22.1123 47.2695 22.0713H49.8799ZM47.4189 27.3975V24.4795H46.7422C46.127 24.4795 45.6846 24.5176 45.415 24.5938C45.1455 24.6641 44.9258 24.8223 44.7559 25.0684C44.5859 25.3086 44.501 25.6074 44.501 25.9648C44.501 26.498 44.6709 26.8701 45.0107 27.0811C45.3506 27.292 45.8955 27.3975 46.6455 27.3975H47.4189ZM51.5498 22.0713H58.6953V24.4971H56.3398V35H53.8438V24.4971H51.5498V22.0713ZM69.8047 22.0713V35H67.3438V26.9053L62.5186 35H60.374V22.0713H62.835V30.4297L67.7305 22.0713H69.8047Z" fill="#F4F4F4"/>
</svg>
