<svg width="20" height="20" viewBox="0 0 20 20" fill="none" xmlns="http://www.w3.org/2000/svg">
<path d="M0.769231 0C0.345385 0 0 0.345385 0 0.769231V13.0769C0 13.5008 0.345385 13.8462 0.769231 13.8462H13.0769C13.5008 13.8462 13.8462 13.5008 13.8462 13.0769V0.769231C13.8462 0.345385 13.5008 0 13.0769 0H0.769231ZM1.53846 1.53846H12.3077V10.7692H1.53846V1.53846ZM14.6154 2.23538V3.79769L16.01 4.03846L14.6154 12.1154V13.0769C14.6154 13.9262 13.9254 14.6154 13.0769 14.6154H4.92769L14.6877 16.2985C14.8885 16.3333 15.095 16.287 15.2617 16.1698C15.4284 16.0525 15.5418 15.8739 15.5769 15.6731L17.6446 3.53385C17.6621 3.43433 17.6598 3.33236 17.6378 3.23374C17.6158 3.13513 17.5746 3.04182 17.5165 2.95916C17.4584 2.87649 17.3846 2.80609 17.2993 2.75199C17.2139 2.69788 17.1188 2.66114 17.0192 2.64385L14.6154 2.23538ZM6.92308 3.02846C6.03769 3.02846 5.28846 3.63769 5.28846 4.78385C5.28846 5.53308 5.62231 6.28538 6.08154 6.75462C6.26154 7.22385 5.95539 7.40231 5.88923 7.42769C4.96154 7.76308 3.87 8.38539 3.87 8.99V9.97615H9.97615V8.99077C9.97615 8.36769 8.88231 7.74923 7.90846 7.42769C7.86385 7.41308 7.58769 7.28923 7.76462 6.75462C8.22231 6.28538 8.58154 5.52923 8.58154 4.78385C8.58154 3.63769 7.80846 3.02846 6.92308 3.02846ZM18.0046 6.08231L17.7408 7.59615L18.2931 7.71615L16.1777 16.7069L15.8654 16.6346C15.6938 16.8037 15.4842 16.929 15.254 17.0001C15.0239 17.0712 14.7801 17.0859 14.5431 17.0431L3.89462 15.2162L3.67692 16.1308C3.6316 16.3314 3.66659 16.5417 3.77442 16.7168C3.88224 16.8919 4.05433 17.0179 4.25385 17.0677L16.2254 19.8808C16.426 19.9261 16.6363 19.8911 16.8114 19.7833C16.9865 19.6754 17.1125 19.5034 17.1623 19.3038L19.9523 7.33077C20.05 6.91846 19.8138 6.49154 19.4 6.39308L18.0054 6.08077L18.0046 6.08231Z" fill="white"/>
</svg>
